
<svg width="106px" height="116px" viewBox="0 0 106 116" version="1.1" xmlns="http://www.w3.org/2000/svg" xmlns:xlink="http://www.w3.org/1999/xlink">
    <!-- Generator: Sketch 47.1 (45422) - http://www.bohemiancoding.com/sketch -->
    <desc>Created with Sketch.</desc>
    <defs>
        <linearGradient x1="50%" y1="100%" x2="50%" y2="0%" id="linearGradient-1">
            <stop stop-color="#FFE6B6" offset="0%"></stop>
            <stop stop-color="#EBC2B3" offset="100%"></stop>
        </linearGradient>
        <linearGradient x1="50%" y1="0%" x2="50%" y2="100%" id="linearGradient-2">
            <stop stop-color="#DAD1D1" offset="0%"></stop>
            <stop stop-color="#E0E0E0" offset="100%"></stop>
        </linearGradient>
        <linearGradient x1="50%" y1="0%" x2="50%" y2="100%" id="linearGradient-3">
            <stop stop-color="#E8E8E8" offset="0%"></stop>
            <stop stop-color="#CDCDCD" offset="100%"></stop>
        </linearGradient>
    </defs>
    <g id="Page-1" stroke="none" stroke-width="1" fill="none" fill-rule="evenodd">
        <g id="LogoGraphic" transform="translate(-210.000000, -393.000000)">
            <g id="Group" transform="translate(210.000000, 395.000000)">
                <path d="M4.28593827,30.7978 L48.9961552,-0.332587099 L48.9961552,-0.332587099 C52.1479626,-2.52709634 56.3450702,-2.47979503 59.4466192,-0.214810597 L101.897565,30.7860639 L101.897565,30.7860639 C104.47573,32.6688342 106,35.6694215 106,38.8618752 L106,103 L106,103 C106,109.075132 101.075132,114 95,114 L11,114 L11,114 C4.92486775,114 7.43989126e-16,109.075132 0,103 L0,39.004474 L-1.77635684e-15,39.004474 C-5.08317996e-15,35.7324751 1.60071543,32.6674404 4.28593827,30.7978 Z" id="Rectangle-2" fill="#E9E9E9"></path>
                <path d="M11.1818182,13 L7,13 L7,104 L99,104 L99,13 L95.7474747,13 C95.7474747,15.8062794 93.4591524,18.0812183 90.6363636,18.0812183 C87.8135749,18.0812183 85.5252525,15.8062794 85.5252525,13 L77.1616162,13 C77.1616162,15.8062794 74.8732938,18.0812183 72.0505051,18.0812183 C69.2277163,18.0812183 66.9393939,15.8062794 66.9393939,13 L58.5757576,13 C58.5757576,15.8062794 56.2874352,18.0812183 53.4646465,18.0812183 C50.6418577,18.0812183 48.3535354,15.8062794 48.3535354,13 L39.989899,13 C39.989899,15.8062794 37.7015766,18.0812183 34.8787879,18.0812183 C32.0559992,18.0812183 29.7676768,15.8062794 29.7676768,13 L21.4040404,13 C21.4040404,15.8062794 19.115718,18.0812183 16.2929293,18.0812183 C13.4701406,18.0812183 11.1818182,15.8062794 11.1818182,13 Z" id="Combined-Shape" fill="url(#linearGradient-1)"></path>
                <polygon id="Path-6" fill="#E7CBAE" points="8 44 53.2819256 68.0102802 100 44 58.9622517 73 48.7271827 73"></polygon>
                <polygon id="Path-4" fill="url(#linearGradient-2)" points="106 39 57 73.1442523 106 109"></polygon>
                <polygon id="Path-4" fill="url(#linearGradient-2)" points="2.13162821e-14 38 49 71.959627 7.10542736e-15 109"></polygon>
                <path d="M0,108.786612 L45.5766314,73.2321756 L45.5766314,73.2321756 C49.912102,69.8500648 55.9915559,69.8473264 60.3300717,73.2255299 L106,108.786612 C105.780929,111.591613 103.926466,112.994113 100.436612,112.994113 C95.2018304,112.994113 8.45436979,113.007358 3.61745012,112.994113 C1.32837866,112.639489 0.122561956,111.236988 0,108.786612 Z" id="Path-5" fill="url(#linearGradient-3)"></path>
                <path d="M45.2866003,45.8099112 L45.2866003,45.8099112 L45.2866003,45.8099112 C45.7908856,45.0357818 46.8272455,44.8170299 47.6013749,45.3213152 C47.6204978,45.3337723 47.6393638,45.3466194 47.657961,45.3598485 L49.5900903,46.7342649 L49.5900903,46.7342649 C50.9402014,47.6946638 52.8132399,47.3787397 53.7736388,46.0286286 C53.8267702,45.9539374 53.8764506,45.8768504 53.9225236,45.7976102 L59.6918367,35.8750635 L59.6918367,35.8750635 C60.1800266,35.0354336 61.2564372,34.7505353 62.0960671,35.2387252 C62.1158473,35.2502262 62.1354012,35.262112 62.1547176,35.274376 L62.1547176,35.274376 L62.1547176,35.274376 C63.0074021,35.815747 63.2599813,36.9457326 62.7189501,37.7986328 L54.6602984,50.5025693 L54.6602984,50.5025693 C53.7727873,51.9016726 51.91912,52.3163999 50.5200168,51.4288887 C50.4973573,51.4145148 50.4748916,51.3998375 50.4526259,51.3848608 L45.7814259,48.242848 L45.7814259,48.242848 C44.9793561,47.7033478 44.7589878,46.6198503 45.2866003,45.8099112 Z" id="Path-7" fill="#FFFFFF"></path>
            </g>
        </g>
    </g>
</svg>
