<svg width="343px" height="565px" viewBox="0 0 343 565" version="1.1" >
    <desc>Created with Sketch.</desc>
    <defs>
        <path d="M964,2526 L1198.94505,2526 C1199.84739,2526 1200.73811,2525.79648 1201.55091,2525.40458 C1204.53577,2523.96541 1205.7888,2520.37901 1204.34963,2517.39415 L1204.34963,2517.39415 C1199.61548,2507.57546 1197.2484,2498.44407 1197.2484,2490 C1197.2484,2481.55593 1199.61547,2472.42455 1204.34963,2462.60586 C1204.74152,2461.79306 1204.94505,2460.90234 1204.94505,2460 C1204.94505,2456.68629 1202.25875,2454 1198.94504,2454 L1198.94504,2454 L964,2454 L964,1982 L964,1982 C964,1979.79086 965.790861,1978 968,1978 L968,1978 L1283,1978 C1296.25483,1978 1307,1988.74517 1307,2002 L1307,2493 C1307,2520.61424 1284.61424,2543 1257,2543 L968,2543 C965.790861,2543 964,2541.20914 964,2539 L964,2526 Z M1252,2525 C1271.88225,2525 1288,2508.88225 1288,2489 C1288,2469.11775 1271.88225,2453 1252,2453 C1232.11775,2453 1216,2469.11775 1216,2489 C1216,2508.88225 1232.11775,2525 1252,2525 Z" id="path-1"></path>
    </defs>
    <g id="Page-1" stroke="none" stroke-width="1" fill="none" fill-rule="evenodd" opacity="0.32421875">
        <g id="Artboard" transform="translate(-964.000000, -1978.000000)">
            <g id="Combined-Shape">
                <use fill="#FBD700" fill-rule="evenodd" xlink:href="#path-1"></use>
                <path stroke="#979797" stroke-width="2" d="M965,2527 L965,2539 C965,2540.65685 966.343146,2542 968,2542 L1257,2542 C1284.06195,2542 1306,2520.06195 1306,2493 L1306,2002 C1306,1989.29745 1295.70255,1979 1283,1979 L968,1979 C966.343146,1979 965,1980.34315 965,1982 L965,2453 L1198.94504,2453 C1202.81104,2453 1205.94505,2456.134 1205.94505,2460 C1205.94505,2461.05273 1205.7076,2462.09191 1205.25039,2463.04017 C1200.57787,2472.73103 1198.2484,2481.71735 1198.2484,2490 C1198.2484,2498.28265 1200.57787,2507.26898 1205.25039,2516.95984 C1206.92943,2520.44218 1205.46756,2524.62631 1201.98522,2526.30534 C1201.03696,2526.76256 1199.99778,2527 1198.94505,2527 L965,2527 Z M1252,2526 C1231.56546,2526 1215,2509.43454 1215,2489 C1215,2468.56546 1231.56546,2452 1252,2452 C1272.43454,2452 1289,2468.56546 1289,2489 C1289,2509.43454 1272.43454,2526 1252,2526 Z"></path>
            </g>
        </g>
    </g>
</svg>
