
<svg width="1339px" height="808px" viewBox="0 0 1339 808" version="1.1" xmlns="http://www.w3.org/2000/svg" xmlns:xlink="http://www.w3.org/1999/xlink">
    <!-- Generator: Sketch 47.1 (45422) - http://www.bohemiancoding.com/sketch -->
    <desc>Created with Sketch.</desc>
    <defs>
        <linearGradient x1="50%" y1="0%" x2="50%" y2="100%" id="linearGradient-1">
            <stop stop-color="#FFFFFF" stop-opacity="0.522305254" offset="0%"></stop>
            <stop stop-color="#48617A" stop-opacity="0.522305254" offset="100%"></stop>
        </linearGradient>
    </defs>
    <g id="Page-1" stroke="none" stroke-width="1" fill="none" fill-rule="evenodd">
        <g id="LogoGraphic" transform="translate(-69.000000, -32.000000)">
            <g id="Group" transform="translate(69.000000, 32.000000)">
                <path d="M119.309827,126.513558 C122.051026,124.939843 120.53648,120.808902 118.475982,118.975636 C116.415484,117.142369 114.937703,115.756605 112.728564,115.756605 C110.519426,115.756605 109.718001,121.171631 111.270702,122.988237 C112.823404,124.804843 116.568629,128.087274 119.309827,126.513558 Z" id="Oval-2" fill-opacity="0.504161005" fill="#FED62C"></path>
                <path d="M269.275139,33.6861838 C271.117872,31.7248901 268.077797,29.1943923 267.243951,28.436213 C266.410106,27.6780337 263.118757,25.3481792 261.488615,26.5776334 C259.858472,27.8070876 261.286505,31.23693 262.373841,32.0536969 C263.461177,32.8704638 267.432407,35.6474774 269.275139,33.6861838 Z" id="Oval-2" fill="#D1C5BD"></path>
                <path d="M987.996085,566.579834 C989.020457,565.174274 987.761097,562.820185 986.420183,561.597377 C985.079268,560.37457 983.015071,558.992905 980.805932,558.992905 C978.596793,558.992905 979.253231,562.415026 980.805932,564.231632 C982.358634,566.048238 986.971714,567.985393 987.996085,566.579834 Z" id="Oval-2" fill="#D8D8D8"></path>
                <path d="M1338.14682,226.773859 C1338.75906,225.933793 1338.00638,224.526815 1337.20495,223.795975 C1336.40352,223.065135 1335.1698,222.23935 1333.84946,222.23935 C1332.52911,222.23935 1332.92145,224.284662 1333.84946,225.3704 C1334.77747,226.456138 1337.53458,227.613925 1338.14682,226.773859 Z" id="Oval-2" fill="#FE1921"></path>
                <path d="M628.22678,60.3565705 C629.846627,59.4266202 628.951642,56.9855373 627.734038,55.9022112 C626.516435,54.8188852 625.643175,54 624.337736,54 C623.032297,54 622.558714,57.1998834 623.476247,58.2733642 C624.393779,59.3468451 626.606933,61.2865208 628.22678,60.3565705 Z" id="Oval-2" fill="url(#linearGradient-1)"></path>
                <path d="M856.70103,69.1143325 C857.664934,68.560958 854.006343,64.7765682 853.281798,64.1319262 C852.557254,63.4872843 852.037613,63 851.260801,63 C850.483989,63 850.20218,64.9041166 850.748165,65.5429001 C851.29415,66.1816836 855.737127,69.667707 856.70103,69.1143325 Z" id="Oval-2" fill-opacity="0.52" fill="#48617A"></path>
                <path d="M899.309827,616.513558 C902.051026,614.939843 900.53648,610.808902 898.475982,608.975636 C896.415484,607.142369 894.937703,605.756605 892.728564,605.756605 C890.519426,605.756605 889.718001,611.171631 891.270702,612.988237 C892.823404,614.804843 896.568629,618.087274 899.309827,616.513558 Z" id="Oval-2" fill-opacity="0.27" fill="#FDC612"></path>
                <path d="M1028.91854,744.16615 C1030.70985,742.981832 1028.54796,740.043311 1027.673,739.036177 C1026.79804,738.029042 1025.33875,736.745291 1023.41596,737.383105 C1021.49316,738.02092 1022.38176,740.428614 1023.93446,742.24522 C1025.48716,744.061826 1027.12724,745.350468 1028.91854,744.16615 Z" id="Oval-2" fill="#E2CBD7"></path>
                <path d="M767.792105,322.94007 C768.898434,322.180058 767.212129,320.45067 766.885493,320.219708 C766.558857,319.988746 765.289677,319.421669 764.826798,319.744504 C764.36392,320.067339 764.529664,322.107413 765.250076,322.619595 C765.970488,323.131778 766.685776,323.700082 767.792105,322.94007 Z" id="Oval-2" fill="#E2CBD7"></path>
                <path d="M527.792105,692.94007 C528.898434,692.180058 527.212129,690.45067 526.885493,690.219708 C526.558857,689.988746 525.289677,689.421669 524.826798,689.744504 C524.36392,690.067339 524.529664,692.107413 525.250076,692.619595 C525.970488,693.131778 526.685776,693.700082 527.792105,692.94007 Z" id="Oval-2" fill="#E2CBD7"></path>
                <path d="M837.792105,752.94007 C838.898434,752.180058 837.212129,750.45067 836.885493,750.219708 C836.558857,749.988746 835.289677,749.421669 834.826798,749.744504 C834.36392,750.067339 834.529664,752.107413 835.250076,752.619595 C835.970488,753.131778 836.685776,753.700082 837.792105,752.94007 Z" id="Oval-2" fill="#E2CBD7"></path>
                <path d="M245.472932,226.909089 C246.853644,226.909089 246.635504,224.225902 246.14461,223.150841 C245.653716,222.07578 244.164912,220.259324 243.075103,220.57492 C241.985293,220.890515 241.604814,223.100884 242.041563,224.081774 C242.478312,225.062664 244.092221,226.909089 245.472932,226.909089 Z" id="Oval-2" fill-opacity="0.52" fill="#48617A"></path>
                <path d="M245.472932,507.909089 C246.853644,507.909089 246.635504,505.225902 246.14461,504.150841 C245.653716,503.07578 244.164912,501.259324 243.075103,501.57492 C241.985293,501.890515 241.604814,504.100884 242.041563,505.081774 C242.478312,506.062664 244.092221,507.909089 245.472932,507.909089 Z" id="Oval-2" fill-opacity="0.5" fill="#FED62C"></path>
                <path d="M365.472932,707.909089 C366.853644,707.909089 366.635504,705.225902 366.14461,704.150841 C365.653716,703.07578 364.164912,701.259324 363.075103,701.57492 C361.985293,701.890515 361.604814,704.100884 362.041563,705.081774 C362.478312,706.062664 364.092221,707.909089 365.472932,707.909089 Z" id="Oval-2" fill-opacity="0.52" fill="#48617A"></path>
                <path d="M537.324805,807.56784 C539.440444,807.56784 538.076992,803.920339 537.324805,802.273042 C536.572617,800.625746 533.805764,799.393759 532.135869,799.877341 C530.465974,800.360923 531.466647,803.769288 532.135869,805.272288 C532.805092,806.775288 535.209165,807.56784 537.324805,807.56784 Z" id="Oval-2" fill-opacity="0.27" fill="#FDC612"></path>
                <path d="M934.472932,156.909089 C935.853644,156.909089 935.635504,154.225902 935.14461,153.150841 C934.653716,152.07578 933.164912,150.259324 932.075103,150.57492 C930.985293,150.890515 930.604814,153.100884 931.041563,154.081774 C931.478312,155.062664 933.092221,156.909089 934.472932,156.909089 Z" id="Oval-2" fill-opacity="0.27" fill="#FDC612"></path>
                <path d="M1174.47293,6.9090894 C1175.85364,6.9090894 1175.6355,4.22590198 1175.14461,3.15084082 C1174.65372,2.07577966 1173.16491,0.259323529 1172.0751,0.574919509 C1170.98529,0.890515489 1170.60481,3.10088392 1171.04156,4.08177417 C1171.47831,5.06266443 1173.09222,6.9090894 1174.47293,6.9090894 Z" id="Oval-2" fill-opacity="0.36" fill="#64A2DF"></path>
                <path d="M5.61880497,326.909089 C7.43795419,326.909089 7.15054448,323.373871 6.50377004,321.95743 C5.8569956,320.540989 3.89542997,318.147728 2.45955765,318.563539 C1.02368533,318.979351 0.522387408,321.89161 1.09782353,323.183976 C1.67325966,324.476342 3.79965575,326.909089 5.61880497,326.909089 Z" id="Oval-2" fill="#C4AAA8"></path>
                <path d="M1252.75441,739.393376 C1254.57356,739.393376 1254.28615,735.858157 1253.63938,734.441716 C1252.99261,733.025275 1251.03104,730.632014 1249.59517,731.047825 C1248.1593,731.463637 1247.658,734.375896 1248.23343,735.668262 C1248.80887,736.960629 1250.93527,739.393376 1252.75441,739.393376 Z" id="Oval-2" fill="#FCF3D9"></path>
                <path d="M215.618805,346.909089 C217.437954,346.909089 217.150544,343.373871 216.50377,341.95743 C215.856996,340.540989 213.89543,338.147728 212.459558,338.563539 C211.023685,338.979351 210.522387,341.89161 211.097824,343.183976 C211.67326,344.476342 213.799656,346.909089 215.618805,346.909089 Z" id="Oval-2" fill-opacity="0.52" fill="#48617A"></path>
                <text id="r" transform="translate(163.500000, 623.000000) rotate(4.000000) translate(-163.500000, -623.000000) " font-family="Chivo-Bold, Chivo" font-size="18" font-weight="bold" fill="#393939">
                    <tspan x="151" y="616">r</tspan>
                </text>
                <text id="r" transform="translate(1026.631068, 147.515748) rotate(64.000000) translate(-1026.631068, -147.515748) " font-family="Chivo-Bold, Chivo" font-size="18" font-weight="bold" fill="#393939">
                    <tspan x="1014.13107" y="140.515748">r</tspan>
                </text>
                <text id="r" transform="translate(1079.631068, 699.515748) rotate(-31.000000) translate(-1079.631068, -699.515748) " font-family="Chivo-Bold, Chivo" font-size="20" font-weight="bold" fill="#393939">
                    <tspan x="1067.13107" y="694.515748">r</tspan>
                </text>
            </g>
        </g>
    </g>
</svg>
