
<svg width="1303px" height="829px" viewBox="0 0 1303 829" version="1.1" xmlns="http://www.w3.org/2000/svg" xmlns:xlink="http://www.w3.org/1999/xlink">
    <desc>Created with Sketch.</desc>
    <defs>
        <filter x="-16.5%" y="-8.6%" width="133.0%" height="117.2%" filterUnits="objectBoundingBox" id="filter-1">
            <feGaussianBlur stdDeviation="1.37555804 0" in="SourceGraphic"></feGaussianBlur>
        </filter>
        <filter x="-16.5%" y="-8.6%" width="133.0%" height="117.2%" filterUnits="objectBoundingBox" id="filter-2">
            <feGaussianBlur stdDeviation="1.37555804 0" in="SourceGraphic"></feGaussianBlur>
        </filter>
        <filter x="-24.4%" y="-23.6%" width="148.7%" height="147.1%" filterUnits="objectBoundingBox" id="filter-3">
            <feGaussianBlur stdDeviation="1.37555804 0" in="SourceGraphic"></feGaussianBlur>
        </filter>
        <filter x="-67.3%" y="-49.2%" width="234.5%" height="198.3%" filterUnits="objectBoundingBox" id="filter-4">
            <feGaussianBlur stdDeviation="1.37555804 0" in="SourceGraphic"></feGaussianBlur>
        </filter>
        <filter x="-16.5%" y="-8.6%" width="133.0%" height="117.2%" filterUnits="objectBoundingBox" id="filter-5">
            <feGaussianBlur stdDeviation="1.37555804 0" in="SourceGraphic"></feGaussianBlur>
        </filter>
        <filter x="-16.5%" y="-8.6%" width="133.0%" height="117.2%" filterUnits="objectBoundingBox" id="filter-6">
            <feGaussianBlur stdDeviation="1.37555804 0" in="SourceGraphic"></feGaussianBlur>
        </filter>
        <filter x="-67.3%" y="-49.2%" width="234.5%" height="198.3%" filterUnits="objectBoundingBox" id="filter-7">
            <feGaussianBlur stdDeviation="1.37555804 0" in="SourceGraphic"></feGaussianBlur>
        </filter>
        <filter x="-88.6%" y="-64.8%" width="277.2%" height="229.6%" filterUnits="objectBoundingBox" id="filter-8">
            <feGaussianBlur stdDeviation="1.37555804 0" in="SourceGraphic"></feGaussianBlur>
        </filter>
        <filter x="-114.8%" y="-112.7%" width="329.5%" height="325.4%" filterUnits="objectBoundingBox" id="filter-9">
            <feGaussianBlur stdDeviation="1.37555804 0" in="SourceGraphic"></feGaussianBlur>
        </filter>
        <linearGradient x1="50%" y1="0%" x2="50%" y2="100%" id="linearGradient-10">
            <stop stop-color="#FFDCDD" stop-opacity="0.536146966" offset="0%"></stop>
            <stop stop-color="#FE0004" stop-opacity="0.536146966" offset="100%"></stop>
        </linearGradient>
        <filter x="-30.7%" y="-33.7%" width="161.3%" height="167.5%" filterUnits="objectBoundingBox" id="filter-11">
            <feGaussianBlur stdDeviation="1.37555804 0" in="SourceGraphic"></feGaussianBlur>
        </filter>
        <filter x="-59.0%" y="-64.9%" width="217.9%" height="229.7%" filterUnits="objectBoundingBox" id="filter-12">
            <feGaussianBlur stdDeviation="1.37555804 0" in="SourceGraphic"></feGaussianBlur>
        </filter>
        <filter x="-59.0%" y="-64.9%" width="217.9%" height="229.7%" filterUnits="objectBoundingBox" id="filter-13">
            <feGaussianBlur stdDeviation="1.37555804 0" in="SourceGraphic"></feGaussianBlur>
        </filter>
        <filter x="-59.0%" y="-64.9%" width="217.9%" height="229.7%" filterUnits="objectBoundingBox" id="filter-14">
            <feGaussianBlur stdDeviation="1.37555804 0" in="SourceGraphic"></feGaussianBlur>
        </filter>
        <filter x="-113.6%" y="-105.0%" width="327.2%" height="310.1%" filterUnits="objectBoundingBox" id="filter-15">
            <feGaussianBlur stdDeviation="1.37555804 0" in="SourceGraphic"></feGaussianBlur>
        </filter>
        <filter x="-114.8%" y="-112.7%" width="329.5%" height="325.4%" filterUnits="objectBoundingBox" id="filter-16">
            <feGaussianBlur stdDeviation="1.37555804 0" in="SourceGraphic"></feGaussianBlur>
        </filter>
        <filter x="-88.6%" y="-64.8%" width="277.2%" height="229.6%" filterUnits="objectBoundingBox" id="filter-17">
            <feGaussianBlur stdDeviation="1.37555804 0" in="SourceGraphic"></feGaussianBlur>
        </filter>
        <linearGradient x1="50%" y1="0%" x2="50%" y2="100%" id="linearGradient-18">
            <stop stop-color="#FFFFFF" stop-opacity="0.522305254" offset="0%"></stop>
            <stop stop-color="#48617A" stop-opacity="0.522305254" offset="100%"></stop>
        </linearGradient>
        <filter x="-39.9%" y="-36.9%" width="179.9%" height="173.9%" filterUnits="objectBoundingBox" id="filter-19">
            <feGaussianBlur stdDeviation="1.37555804 0" in="SourceGraphic"></feGaussianBlur>
        </filter>
        <filter x="-39.9%" y="-36.9%" width="179.9%" height="173.9%" filterUnits="objectBoundingBox" id="filter-20">
            <feGaussianBlur stdDeviation="1.37555804 0" in="SourceGraphic"></feGaussianBlur>
        </filter>
        <filter x="-88.6%" y="-64.8%" width="277.2%" height="229.6%" filterUnits="objectBoundingBox" id="filter-21">
            <feGaussianBlur stdDeviation="1.37555804 0" in="SourceGraphic"></feGaussianBlur>
        </filter>
        <linearGradient x1="-14.1610263%" y1="-9.57321799%" x2="70.9318971%" y2="63.7017371%" id="linearGradient-22">
            <stop stop-color="#FFD4D5" stop-opacity="0.54" offset="0%"></stop>
            <stop stop-color="#FE0004" stop-opacity="0.54" offset="100%"></stop>
        </linearGradient>
        <filter x="-79.6%" y="-72.1%" width="259.2%" height="244.3%" filterUnits="objectBoundingBox" id="filter-23">
            <feGaussianBlur stdDeviation="1.37555804 0" in="SourceGraphic"></feGaussianBlur>
        </filter>
        <filter x="-45.9%" y="-51.1%" width="191.8%" height="202.3%" filterUnits="objectBoundingBox" id="filter-24">
            <feGaussianBlur stdDeviation="1.37555804 0" in="SourceGraphic"></feGaussianBlur>
        </filter>
        <filter x="-114.8%" y="-112.7%" width="329.5%" height="325.4%" filterUnits="objectBoundingBox" id="filter-25">
            <feGaussianBlur stdDeviation="1.37555804 0" in="SourceGraphic"></feGaussianBlur>
        </filter>
        <filter x="-88.6%" y="-64.8%" width="277.2%" height="229.6%" filterUnits="objectBoundingBox" id="filter-26">
            <feGaussianBlur stdDeviation="1.37555804 0" in="SourceGraphic"></feGaussianBlur>
        </filter>
    </defs>
    <g id="Page-1" stroke="none" stroke-width="1" fill="none" fill-rule="evenodd">
        <g id="LogoGraphic" transform="translate(-71.000000, -36.000000)">
            <g id="Group-2" transform="translate(74.000000, 36.000000)">
                <text id="r" filter="url(#filter-2)" transform="translate(849.631068, 796.515748) rotate(-63.000000) translate(-849.631068, -796.515748) " font-family="Chivo-Bold, Chivo" font-size="24" font-weight="bold" fill="#393939">
                    <tspan x="837.131068" y="795.515748">r</tspan>
                </text>
                <path d="M62.0781341,713.286021 C64.8352683,711.388318 62.028456,704.450151 58.8316707,701.832736 C55.6348854,699.215322 48.4986273,694.778447 46.6741993,696.501656 C44.8497714,698.224865 49.4863943,705.618884 50.721101,707.14705 C51.9558077,708.675216 59.3209999,715.183724 62.0781341,713.286021 Z" id="Oval-2" fill-opacity="0.267974411" fill="#FDC612" filter="url(#filter-3)"></path>
                <path d="M105.618805,267.909089 C107.437954,267.909089 107.150544,264.373871 106.50377,262.95743 C105.856996,261.540989 103.89543,259.147728 102.459558,259.563539 C101.023685,259.979351 100.522387,262.89161 101.097824,264.183976 C101.67326,265.476342 103.799656,267.909089 105.618805,267.909089 Z" id="Oval-2" fill-opacity="0.36" fill="#64A2DF" filter="url(#filter-4)"></path>
                <text id="r" filter="url(#filter-6)" transform="translate(390.500000, 142.000000) rotate(16.000000) translate(-390.500000, -142.000000) " font-family="Chivo-Bold, Chivo" font-size="18" font-weight="bold" fill="#393939">
                    <tspan x="378" y="135">r</tspan>
                </text>
                <path d="M55.618805,549.909089 C57.4379542,549.909089 57.1505445,546.373871 56.50377,544.95743 C55.8569956,543.540989 53.89543,541.147728 52.4595577,541.563539 C51.0236853,541.979351 50.5223874,544.89161 51.0978235,546.183976 C51.6732597,547.476342 53.7996557,549.909089 55.618805,549.909089 Z" id="Oval-2" fill-opacity="0.361611187" fill="#64A2DF" filter="url(#filter-7)"></path>
                <path d="M465.472932,217.909089 C466.853644,217.909089 466.635504,215.225902 466.14461,214.150841 C465.653716,213.07578 464.164912,211.259324 463.075103,211.57492 C461.985293,211.890515 461.604814,214.100884 462.041563,215.081774 C462.478312,216.062664 464.092221,217.909089 465.472932,217.909089 Z" id="Oval-2" fill-opacity="0.5" fill="#FED62C" filter="url(#filter-8)"></path>
                <path d="M817.792105,3.94006983 C818.898434,3.18005751 817.212129,1.45067041 816.885493,1.21970828 C816.558857,0.988746144 815.289677,0.42166912 814.826798,0.74450389 C814.36392,1.06733866 814.529664,3.10741313 815.250076,3.61959534 C815.970488,4.13177756 816.685776,4.70008214 817.792105,3.94006983 Z" id="Oval-2" fill-opacity="0.36" fill="#64A2DF" filter="url(#filter-9)"></path>
                <path d="M1139.30983,57.5135585 C1142.05103,55.9398431 1140.53648,51.8089024 1138.47598,49.9756359 C1136.41548,48.1423693 1130.20411,45.6956372 1127.99497,45.6956372 C1125.78583,45.6956372 1129.718,52.1716312 1131.2707,53.9882371 C1132.8234,55.8048431 1136.56863,59.0872739 1139.30983,57.5135585 Z" id="Oval-2" fill="url(#linearGradient-10)" filter="url(#filter-11)"></path>
                <path d="M1113.2274,65.1467274 C1114.65315,64.3282078 1113.86541,62.1796264 1112.79371,61.2261093 C1111.722,60.2725923 1108.49135,59 1107.34233,59 C1106.19332,59 1108.23851,62.3682886 1109.0461,63.3131402 C1109.85369,64.2579917 1111.80165,65.9652469 1113.2274,65.1467274 Z" id="Oval-2" fill="url(#linearGradient-10)" filter="url(#filter-12)"></path>
                <path d="M863.227405,75.1467274 C864.653155,74.3282078 863.86541,72.1796264 862.793706,71.2261093 C861.722001,70.2725923 858.491347,69 857.342331,69 C856.193316,69 858.238512,72.3682886 859.046102,73.3131402 C859.853692,74.2579917 861.801655,75.9652469 863.227405,75.1467274 Z" id="Oval-2" fill="url(#linearGradient-10)" filter="url(#filter-13)"></path>
                <path d="M273.227405,35.1467274 C274.653155,34.3282078 273.86541,32.1796264 272.793706,31.2261093 C271.722001,30.2725923 268.491347,29 267.342331,29 C266.193316,29 268.238512,32.3682886 269.046102,33.3131402 C269.853692,34.2579917 271.801655,35.9652469 273.227405,35.1467274 Z" id="Oval-2" fill="url(#linearGradient-10)" filter="url(#filter-14)"></path>
                <path d="M763.575008,57.782529 C764.538911,57.2291544 764.006343,55.7765682 763.281798,55.1319262 C762.557254,54.4872843 762.037613,54 761.260801,54 C760.483989,54 760.20218,55.9041166 760.748165,56.5429001 C761.29415,57.1816836 762.611105,58.3359035 763.575008,57.782529 Z" id="Oval-2" fill-opacity="0.5" fill="#FED62C" filter="url(#filter-15)"></path>
                <path d="M1177.7921,593.94007 C1178.89843,593.180058 1177.21213,591.45067 1176.88549,591.219708 C1176.55886,590.988746 1175.28968,590.421669 1174.8268,590.744504 C1174.36392,591.067339 1174.52966,593.107413 1175.25008,593.619595 C1175.97049,594.131778 1176.68578,594.700082 1177.7921,593.94007 Z" id="Oval-2" fill="#E2CBD7" filter="url(#filter-16)"></path>
                <path d="M4.47293249,37.9090894 C5.85364436,37.9090894 5.63550393,35.225902 5.14461009,34.1508408 C4.65371625,33.0757797 3.16491208,31.2593235 2.07510265,31.5749195 C0.985293228,31.8905155 0.604814272,34.1008839 1.04156321,35.0817742 C1.47831215,36.0626644 3.09222062,37.9090894 4.47293249,37.9090894 Z" id="Oval-2" fill="#D8D8D8" filter="url(#filter-17)"></path>
                <path d="M619.309827,47.5135585 C622.051026,45.9398431 620.53648,41.8089024 618.475982,39.9756359 C616.415484,38.1423693 614.937703,36.7566048 612.728564,36.7566048 C610.519426,36.7566048 609.718001,42.1716312 611.270702,43.9882371 C612.823404,45.8048431 616.568629,49.0872739 619.309827,47.5135585 Z" id="Oval-2" fill="url(#linearGradient-18)" filter="url(#filter-19)"></path>
                <path d="M1279.30983,567.513558 C1282.05103,565.939843 1280.53648,561.808902 1278.47598,559.975636 C1276.41548,558.142369 1274.9377,556.756605 1272.72856,556.756605 C1270.51943,556.756605 1269.718,562.171631 1271.2707,563.988237 C1272.8234,565.804843 1276.56863,569.087274 1279.30983,567.513558 Z" id="Oval-2" fill="#C3A9A8" filter="url(#filter-20)"></path>
                <path d="M335.472932,828.909089 C336.853644,828.909089 336.635504,826.225902 336.14461,825.150841 C335.653716,824.07578 334.164912,822.259324 333.075103,822.57492 C331.985293,822.890515 331.604814,825.100884 332.041563,826.081774 C332.478312,827.062664 334.092221,828.909089 335.472932,828.909089 Z" id="Oval-2" fill-opacity="0.52" fill="#48617A" filter="url(#filter-21)"></path>
                <path d="M345.14461,167.47204 C346.354223,166.872102 345.704095,164.830494 345.14461,163.963439 C344.585125,163.096384 342.482706,161.588346 341.392896,161.903942 C340.303087,162.219537 340.604814,164.100884 341.041563,165.081774 C341.478312,166.062664 343.934997,168.071978 345.14461,167.47204 Z" id="Oval-2" fill="url(#linearGradient-22)" filter="url(#filter-23)"></path>
                <path d="M1107.99609,337.579834 C1109.02046,336.174274 1107.7611,333.820185 1106.42018,332.597377 C1105.07927,331.37457 1103.01507,329.992905 1100.80593,329.992905 C1098.59679,329.992905 1099.25323,333.415026 1100.80593,335.231632 C1102.35863,337.048238 1106.97171,338.985393 1107.99609,337.579834 Z" id="Oval-2" fill-opacity="0.5" fill="#FED62C" filter="url(#filter-24)"></path>
                <path d="M927.792105,703.94007 C928.898434,703.180058 927.212129,701.45067 926.885493,701.219708 C926.558857,700.988746 925.289677,700.421669 924.826798,700.744504 C924.36392,701.067339 924.529664,703.107413 925.250076,703.619595 C925.970488,704.131778 926.685776,704.700082 927.792105,703.94007 Z" id="Oval-2" fill="#E2CBD7" filter="url(#filter-25)"></path>
                <path d="M1294.47293,77.9090894 C1295.85364,77.9090894 1295.6355,75.225902 1295.14461,74.1508408 C1294.65372,73.0757797 1293.16491,71.2593235 1292.0751,71.5749195 C1290.98529,71.8905155 1290.60481,74.1008839 1291.04156,75.0817742 C1291.47831,76.0626644 1293.09222,77.9090894 1294.47293,77.9090894 Z" id="Oval-2" fill="#F9EFCE" filter="url(#filter-26)"></path>
            </g>
        </g>
    </g>
</svg>
