
<svg width="1209px" height="745px" viewBox="0 0 1209 745" version="1.1" xmlns="http://www.w3.org/2000/svg" xmlns:xlink="http://www.w3.org/1999/xlink">
    <!-- Generator: Sketch 47.1 (45422) - http://www.bohemiancoding.com/sketch -->
    <desc>Created with Sketch.</desc>
    <defs>
        <filter x="-53.4%" y="-39.0%" width="206.8%" height="178.1%" filterUnits="objectBoundingBox" id="filter-1">
            <feGaussianBlur stdDeviation="1.75502232 0" in="SourceGraphic"></feGaussianBlur>
        </filter>
    </defs>
    <g id="Page-1" stroke="none" stroke-width="1" fill="none" fill-rule="evenodd">
        <g id="LogoGraphic" transform="translate(-115.000000, -95.000000)">
            <g id="Group-3" transform="translate(115.000000, 95.000000)">
                <path d="M187.502544,674 C190.425078,674 189.963343,668.320533 188.924275,666.044965 C187.885206,663.769398 184.733874,659.924529 182.427089,660.592547 C180.120304,661.260565 179.314949,665.939222 180.23941,668.01546 C181.163871,670.091697 184.580009,674 187.502544,674 Z" id="Oval-2" fill-opacity="0.595476676" fill="#FE1921" filter="url(#filter-1)"></path>
                <path d="M810.70103,6.11433248 C811.664934,5.56095797 808.006343,1.77656821 807.281798,1.13192625 C806.557254,0.487284284 806.037613,-2.84217094e-14 805.260801,-2.84217094e-14 C804.483989,-2.84217094e-14 804.20218,1.90411661 804.748165,2.54290012 C805.29415,3.18168363 809.737127,6.66770699 810.70103,6.11433248 Z" id="Oval-2" fill-opacity="0.52" fill="#48617A"></path>
                <path d="M491.324805,744.56784 C493.440444,744.56784 492.076992,740.920339 491.324805,739.273042 C490.572617,737.625746 487.805764,736.393759 486.135869,736.877341 C484.465974,737.360923 485.466647,740.769288 486.135869,742.272288 C486.805092,743.775288 489.209165,744.56784 491.324805,744.56784 Z" id="Oval-2" fill-opacity="0.27" fill="#FDC612"></path>
                <path d="M1206.75441,676.393376 C1208.57356,676.393376 1208.28615,672.858157 1207.63938,671.441716 C1206.99261,670.025275 1205.03104,667.632014 1203.59517,668.047825 C1202.1593,668.463637 1201.658,671.375896 1202.23343,672.668262 C1202.80887,673.960629 1204.93527,676.393376 1206.75441,676.393376 Z" id="Oval-2" fill="#FCF3D9"></path>
                <path d="M853.309827,553.513558 C856.051026,551.939843 854.53648,547.808902 852.475982,545.975636 C850.415484,544.142369 848.937703,542.756605 846.728564,542.756605 C844.519426,542.756605 843.718001,548.171631 845.270702,549.988237 C846.823404,551.804843 850.568629,555.087274 853.309827,553.513558 Z" id="Oval-2" fill-opacity="0.27" fill="#FDC612"></path>
                <path d="M481.792105,629.94007 C482.898434,629.180058 481.212129,627.45067 480.885493,627.219708 C480.558857,626.988746 479.289677,626.421669 478.826798,626.744504 C478.36392,627.067339 478.529664,629.107413 479.250076,629.619595 C479.970488,630.131778 480.685776,630.700082 481.792105,629.94007 Z" id="Oval-2" fill="#E2CBD7"></path>
                <path d="M982.918543,681.16615 C984.709848,679.981832 982.54796,677.043311 981.672999,676.036177 C980.798038,675.029042 979.338752,673.745291 977.415958,674.383105 C975.493164,675.02092 976.381755,677.428614 977.934456,679.24522 C979.487158,681.061826 981.127237,682.350468 982.918543,681.16615 Z" id="Oval-2" fill="#E2CBD7"></path>
                <path d="M199.472932,163.909089 C200.853644,163.909089 200.635504,161.225902 200.14461,160.150841 C199.653716,159.07578 198.164912,157.259324 197.075103,157.57492 C195.985293,157.890515 195.604814,160.100884 196.041563,161.081774 C196.478312,162.062664 198.092221,163.909089 199.472932,163.909089 Z" id="Oval-2" fill-opacity="0.52" fill="#48617A"></path>
                <path d="M169.618805,283.909089 C171.437954,283.909089 171.150544,280.373871 170.50377,278.95743 C169.856996,277.540989 167.89543,275.147728 166.459558,275.563539 C165.023685,275.979351 164.522387,278.89161 165.097824,280.183976 C165.67326,281.476342 167.799656,283.909089 169.618805,283.909089 Z" id="Oval-2" fill-opacity="0.52" fill="#48617A"></path>
                <path d="M721.792105,259.94007 C722.898434,259.180058 721.212129,257.45067 720.885493,257.219708 C720.558857,256.988746 719.289677,256.421669 718.826798,256.744504 C718.36392,257.067339 718.529664,259.107413 719.250076,259.619595 C719.970488,260.131778 720.685776,260.700082 721.792105,259.94007 Z" id="Oval-2" fill="#E2CBD7"></path>
                <path d="M73.3098273,63.5135585 C76.0510257,61.9398431 74.53648,57.8089024 72.4759819,55.9756359 C70.4154838,54.1423693 68.9377035,52.7566048 66.7285645,52.7566048 C64.5194255,52.7566048 63.7180012,58.1716312 65.2707024,59.9882371 C66.8234037,61.8048431 70.5686289,65.0872739 73.3098273,63.5135585 Z" id="Oval-2" fill-opacity="0.504161005" fill="#FED62C"></path>
                <path d="M199.472932,444.909089 C200.853644,444.909089 200.635504,442.225902 200.14461,441.150841 C199.653716,440.07578 198.164912,438.259324 197.075103,438.57492 C195.985293,438.890515 195.604814,441.100884 196.041563,442.081774 C196.478312,443.062664 198.092221,444.909089 199.472932,444.909089 Z" id="Oval-2" fill-opacity="0.5" fill="#FED62C"></path>
                <path d="M4.47293249,649.909089 C5.85364436,649.909089 5.63550393,647.225902 5.14461009,646.150841 C4.65371625,645.07578 3.16491208,643.259324 2.07510265,643.57492 C0.985293228,643.890515 0.604814272,646.100884 1.04156321,647.081774 C1.47831215,648.062664 3.09222062,649.909089 4.47293249,649.909089 Z" id="Oval-2" fill-opacity="0.52" fill="#48617A"></path>
                <path d="M968.309827,488.513558 C971.051026,486.939843 969.53648,482.808902 967.475982,480.975636 C965.415484,479.142369 963.937703,477.756605 961.728564,477.756605 C959.519426,477.756605 958.718001,483.171631 960.270702,484.988237 C961.823404,486.804843 965.568629,490.087274 968.309827,488.513558 Z" id="Oval-2" fill="#C3A9A8"></path>
                <text id="r" transform="translate(32.500000, 65.000000) rotate(-32.000000) translate(-32.500000, -65.000000) " font-family="Chivo-Bold, Chivo" font-size="18" font-weight="bold" fill="#393939">
                    <tspan x="20" y="58">r</tspan>
                </text>
            </g>
        </g>
    </g>
</svg>
