
<svg width="1349px" height="838px" viewBox="0 0 1349 838" version="1.1" xmlns="http://www.w3.org/2000/svg" xmlns:xlink="http://www.w3.org/1999/xlink">
    <!-- Generator: Sketch 47.1 (45422) - http://www.bohemiancoding.com/sketch -->
    <desc>Created with Sketch.</desc>
    <defs>
        <linearGradient x1="50%" y1="0%" x2="50%" y2="100%" id="linearGradient-1">
            <stop stop-color="#FFDCDD" stop-opacity="0.536146966" offset="0%"></stop>
            <stop stop-color="#FE0004" stop-opacity="0.536146966" offset="100%"></stop>
        </linearGradient>
        <linearGradient x1="50%" y1="0%" x2="50%" y2="100%" id="linearGradient-2">
            <stop stop-color="#FFFFFF" stop-opacity="0.522305254" offset="0%"></stop>
            <stop stop-color="#48617A" stop-opacity="0.522305254" offset="100%"></stop>
        </linearGradient>
        <linearGradient x1="-14.1610263%" y1="-9.57321799%" x2="70.9318971%" y2="63.7017371%" id="linearGradient-3">
            <stop stop-color="#FFD4D5" stop-opacity="0.54" offset="0%"></stop>
            <stop stop-color="#FE0004" stop-opacity="0.54" offset="100%"></stop>
        </linearGradient>
    </defs>
    <g id="Page-1" stroke="none" stroke-width="1" fill="none" fill-rule="evenodd">
        <g id="LogoGraphic" transform="translate(-59.000000, -32.000000)">
            <g id="Group" transform="translate(59.000000, 32.000000)">
                <path d="M129.309827,126.513558 C132.051026,124.939843 130.53648,120.808902 128.475982,118.975636 C126.415484,117.142369 124.937703,115.756605 122.728564,115.756605 C120.519426,115.756605 119.718001,121.171631 121.270702,122.988237 C122.823404,124.804843 126.568629,128.087274 129.309827,126.513558 Z" id="Oval-2" fill-opacity="0.504161005" fill="#FED62C"></path>
                <path d="M279.275139,33.6861838 C281.117872,31.7248901 278.077797,29.1943923 277.243951,28.436213 C276.410106,27.6780337 273.118757,25.3481792 271.488615,26.5776334 C269.858472,27.8070876 271.286505,31.23693 272.373841,32.0536969 C273.461177,32.8704638 277.432407,35.6474774 279.275139,33.6861838 Z" id="Oval-2" fill="#D1C5BD"></path>
                <path d="M1139.30983,66.5135585 C1142.05103,64.9398431 1140.53648,60.8089024 1138.47598,58.9756359 C1136.41548,57.1423693 1130.20411,54.6956372 1127.99497,54.6956372 C1125.78583,54.6956372 1129.718,61.1716312 1131.2707,62.9882371 C1132.8234,64.8048431 1136.56863,68.0872739 1139.30983,66.5135585 Z" id="Oval-2" fill="url(#linearGradient-1)"></path>
                <path d="M997.996085,566.579834 C999.020457,565.174274 997.761097,562.820185 996.420183,561.597377 C995.079268,560.37457 993.015071,558.992905 990.805932,558.992905 C988.596793,558.992905 989.253231,562.415026 990.805932,564.231632 C992.358634,566.048238 996.971714,567.985393 997.996085,566.579834 Z" id="Oval-2" fill="#D8D8D8"></path>
                <path d="M1107.99609,346.579834 C1109.02046,345.174274 1107.7611,342.820185 1106.42018,341.597377 C1105.07927,340.37457 1103.01507,338.992905 1100.80593,338.992905 C1098.59679,338.992905 1099.25323,342.415026 1100.80593,344.231632 C1102.35863,346.048238 1106.97171,347.985393 1107.99609,346.579834 Z" id="Oval-2" fill-opacity="0.5" fill="#FED62C"></path>
                <path d="M1348.14682,226.773859 C1348.75906,225.933793 1348.00638,224.526815 1347.20495,223.795975 C1346.40352,223.065135 1345.1698,222.23935 1343.84946,222.23935 C1342.52911,222.23935 1342.92145,224.284662 1343.84946,225.3704 C1344.77747,226.456138 1347.53458,227.613925 1348.14682,226.773859 Z" id="Oval-2" fill="#FE1921"></path>
                <path d="M619.309827,56.5135585 C622.051026,54.9398431 620.53648,50.8089024 618.475982,48.9756359 C616.415484,47.1423693 614.937703,45.7566048 612.728564,45.7566048 C610.519426,45.7566048 609.718001,51.1716312 611.270702,52.9882371 C612.823404,54.8048431 616.568629,58.0872739 619.309827,56.5135585 Z" id="Oval-2" fill="url(#linearGradient-2)"></path>
                <path d="M638.22678,60.3565705 C639.846627,59.4266202 638.951642,56.9855373 637.734038,55.9022112 C636.516435,54.8188852 635.643175,54 634.337736,54 C633.032297,54 632.558714,57.1998834 633.476247,58.2733642 C634.393779,59.3468451 636.606933,61.2865208 638.22678,60.3565705 Z" id="Oval-2" fill="url(#linearGradient-2)"></path>
                <path d="M763.575008,66.782529 C764.538911,66.2291544 764.006343,64.7765682 763.281798,64.1319262 C762.557254,63.4872843 762.037613,63 761.260801,63 C760.483989,63 760.20218,64.9041166 760.748165,65.5429001 C761.29415,66.1816836 762.611105,67.3359035 763.575008,66.782529 Z" id="Oval-2" fill-opacity="0.5" fill="#FED62C"></path>
                <path d="M866.70103,69.1143325 C867.664934,68.560958 864.006343,64.7765682 863.281798,64.1319262 C862.557254,63.4872843 862.037613,63 861.260801,63 C860.483989,63 860.20218,64.9041166 860.748165,65.5429001 C861.29415,66.1816836 865.737127,69.667707 866.70103,69.1143325 Z" id="Oval-2" fill-opacity="0.52" fill="#48617A"></path>
                <path d="M909.309827,616.513558 C912.051026,614.939843 910.53648,610.808902 908.475982,608.975636 C906.415484,607.142369 904.937703,605.756605 902.728564,605.756605 C900.519426,605.756605 899.718001,611.171631 901.270702,612.988237 C902.823404,614.804843 906.568629,618.087274 909.309827,616.513558 Z" id="Oval-2" fill-opacity="0.27" fill="#FDC612"></path>
                <path d="M1038.91854,744.16615 C1040.70985,742.981832 1038.54796,740.043311 1037.673,739.036177 C1036.79804,738.029042 1035.33875,736.745291 1033.41596,737.383105 C1031.49316,738.02092 1032.38176,740.428614 1033.93446,742.24522 C1035.48716,744.061826 1037.12724,745.350468 1038.91854,744.16615 Z" id="Oval-2" fill="#E2CBD7"></path>
                <path d="M927.792105,712.94007 C928.898434,712.180058 927.212129,710.45067 926.885493,710.219708 C926.558857,709.988746 925.289677,709.421669 924.826798,709.744504 C924.36392,710.067339 924.529664,712.107413 925.250076,712.619595 C925.970488,713.131778 926.685776,713.700082 927.792105,712.94007 Z" id="Oval-2" fill="#E2CBD7"></path>
                <path d="M1177.7921,602.94007 C1178.89843,602.180058 1177.21213,600.45067 1176.88549,600.219708 C1176.55886,599.988746 1175.28968,599.421669 1174.8268,599.744504 C1174.36392,600.067339 1174.52966,602.107413 1175.25008,602.619595 C1175.97049,603.131778 1176.68578,603.700082 1177.7921,602.94007 Z" id="Oval-2" fill="#E2CBD7"></path>
                <path d="M777.792105,322.94007 C778.898434,322.180058 777.212129,320.45067 776.885493,320.219708 C776.558857,319.988746 775.289677,319.421669 774.826798,319.744504 C774.36392,320.067339 774.529664,322.107413 775.250076,322.619595 C775.970488,323.131778 776.685776,323.700082 777.792105,322.94007 Z" id="Oval-2" fill="#E2CBD7"></path>
                <path d="M817.792105,12.9400698 C818.898434,12.1800575 817.212129,10.4506704 816.885493,10.2197083 C816.558857,9.98874614 815.289677,9.42166912 814.826798,9.74450389 C814.36392,10.0673387 814.529664,12.1074131 815.250076,12.6195953 C815.970488,13.1317776 816.685776,13.7000821 817.792105,12.9400698 Z" id="Oval-2" fill-opacity="0.36" fill="#64A2DF"></path>
                <path d="M537.792105,692.94007 C538.898434,692.180058 537.212129,690.45067 536.885493,690.219708 C536.558857,689.988746 535.289677,689.421669 534.826798,689.744504 C534.36392,690.067339 534.529664,692.107413 535.250076,692.619595 C535.970488,693.131778 536.685776,693.700082 537.792105,692.94007 Z" id="Oval-2" fill="#E2CBD7"></path>
                <path d="M847.792105,752.94007 C848.898434,752.180058 847.212129,750.45067 846.885493,750.219708 C846.558857,749.988746 845.289677,749.421669 844.826798,749.744504 C844.36392,750.067339 844.529664,752.107413 845.250076,752.619595 C845.970488,753.131778 846.685776,753.700082 847.792105,752.94007 Z" id="Oval-2" fill="#E2CBD7"></path>
                <path d="M1279.30983,576.513558 C1282.05103,574.939843 1280.53648,570.808902 1278.47598,568.975636 C1276.41548,567.142369 1274.9377,565.756605 1272.72856,565.756605 C1270.51943,565.756605 1269.718,571.171631 1271.2707,572.988237 C1272.8234,574.804843 1276.56863,578.087274 1279.30983,576.513558 Z" id="Oval-2" fill="#C3A9A8"></path>
                <path d="M255.472932,226.909089 C256.853644,226.909089 256.635504,224.225902 256.14461,223.150841 C255.653716,222.07578 254.164912,220.259324 253.075103,220.57492 C251.985293,220.890515 251.604814,223.100884 252.041563,224.081774 C252.478312,225.062664 254.092221,226.909089 255.472932,226.909089 Z" id="Oval-2" fill-opacity="0.52" fill="#48617A"></path>
                <path d="M255.472932,507.909089 C256.853644,507.909089 256.635504,505.225902 256.14461,504.150841 C255.653716,503.07578 254.164912,501.259324 253.075103,501.57492 C251.985293,501.890515 251.604814,504.100884 252.041563,505.081774 C252.478312,506.062664 254.092221,507.909089 255.472932,507.909089 Z" id="Oval-2" fill-opacity="0.5" fill="#FED62C"></path>
                <path d="M375.472932,707.909089 C376.853644,707.909089 376.635504,705.225902 376.14461,704.150841 C375.653716,703.07578 374.164912,701.259324 373.075103,701.57492 C371.985293,701.890515 371.604814,704.100884 372.041563,705.081774 C372.478312,706.062664 374.092221,707.909089 375.472932,707.909089 Z" id="Oval-2" fill-opacity="0.52" fill="#48617A"></path>
                <path d="M335.472932,837.909089 C336.853644,837.909089 336.635504,835.225902 336.14461,834.150841 C335.653716,833.07578 334.164912,831.259324 333.075103,831.57492 C331.985293,831.890515 331.604814,834.100884 332.041563,835.081774 C332.478312,836.062664 334.092221,837.909089 335.472932,837.909089 Z" id="Oval-2" fill-opacity="0.52" fill="#48617A"></path>
                <path d="M547.324805,807.56784 C549.440444,807.56784 548.076992,803.920339 547.324805,802.273042 C546.572617,800.625746 543.805764,799.393759 542.135869,799.877341 C540.465974,800.360923 541.466647,803.769288 542.135869,805.272288 C542.805092,806.775288 545.209165,807.56784 547.324805,807.56784 Z" id="Oval-2" fill-opacity="0.27" fill="#FDC612"></path>
                <path d="M465.472932,226.909089 C466.853644,226.909089 466.635504,224.225902 466.14461,223.150841 C465.653716,222.07578 464.164912,220.259324 463.075103,220.57492 C461.985293,220.890515 461.604814,223.100884 462.041563,224.081774 C462.478312,225.062664 464.092221,226.909089 465.472932,226.909089 Z" id="Oval-2" fill-opacity="0.5" fill="#FED62C"></path>
                <path d="M345.14461,176.47204 C346.354223,175.872102 345.704095,173.830494 345.14461,172.963439 C344.585125,172.096384 342.482706,170.588346 341.392896,170.903942 C340.303087,171.219537 340.604814,173.100884 341.041563,174.081774 C341.478312,175.062664 343.934997,177.071978 345.14461,176.47204 Z" id="Oval-2" fill="url(#linearGradient-3)"></path>
                <path d="M944.472932,156.909089 C945.853644,156.909089 945.635504,154.225902 945.14461,153.150841 C944.653716,152.07578 943.164912,150.259324 942.075103,150.57492 C940.985293,150.890515 940.604814,153.100884 941.041563,154.081774 C941.478312,155.062664 943.092221,156.909089 944.472932,156.909089 Z" id="Oval-2" fill-opacity="0.27" fill="#FDC612"></path>
                <path d="M1184.47293,6.9090894 C1185.85364,6.9090894 1185.6355,4.22590198 1185.14461,3.15084082 C1184.65372,2.07577966 1183.16491,0.259323529 1182.0751,0.574919509 C1180.98529,0.890515489 1180.60481,3.10088392 1181.04156,4.08177417 C1181.47831,5.06266443 1183.09222,6.9090894 1184.47293,6.9090894 Z" id="Oval-2" fill-opacity="0.36" fill="#64A2DF"></path>
                <path d="M4.47293249,46.9090894 C5.85364436,46.9090894 5.63550393,44.225902 5.14461009,43.1508408 C4.65371625,42.0757797 3.16491208,40.2593235 2.07510265,40.5749195 C0.985293228,40.8905155 0.604814272,43.1008839 1.04156321,44.0817742 C1.47831215,45.0626644 3.09222062,46.9090894 4.47293249,46.9090894 Z" id="Oval-2" fill="#D8D8D8"></path>
                <path d="M1294.47293,86.9090894 C1295.85364,86.9090894 1295.6355,84.225902 1295.14461,83.1508408 C1294.65372,82.0757797 1293.16491,80.2593235 1292.0751,80.5749195 C1290.98529,80.8905155 1290.60481,83.1008839 1291.04156,84.0817742 C1291.47831,85.0626644 1293.09222,86.9090894 1294.47293,86.9090894 Z" id="Oval-2" fill="#F9EFCE"></path>
                <path d="M105.618805,276.909089 C107.437954,276.909089 107.150544,273.373871 106.50377,271.95743 C105.856996,270.540989 103.89543,268.147728 102.459558,268.563539 C101.023685,268.979351 100.522387,271.89161 101.097824,273.183976 C101.67326,274.476342 103.799656,276.909089 105.618805,276.909089 Z" id="Oval-2" fill-opacity="0.36" fill="#64A2DF"></path>
                <path d="M15.618805,326.909089 C17.4379542,326.909089 17.1505445,323.373871 16.50377,321.95743 C15.8569956,320.540989 13.89543,318.147728 12.4595577,318.563539 C11.0236853,318.979351 10.5223874,321.89161 11.0978235,323.183976 C11.6732597,324.476342 13.7996557,326.909089 15.618805,326.909089 Z" id="Oval-2" fill="#C4AAA8"></path>
                <path d="M55.618805,556.909089 C57.4379542,556.909089 57.1505445,553.373871 56.50377,551.95743 C55.8569956,550.540989 53.89543,548.147728 52.4595577,548.563539 C51.0236853,548.979351 50.5223874,551.89161 51.0978235,553.183976 C51.6732597,554.476342 53.7996557,556.909089 55.618805,556.909089 Z" id="Oval-2" fill-opacity="0.361611187" fill="#64A2DF"></path>
                <path d="M1262.75441,739.393376 C1264.57356,739.393376 1264.28615,735.858157 1263.63938,734.441716 C1262.99261,733.025275 1261.03104,730.632014 1259.59517,731.047825 C1258.1593,731.463637 1257.658,734.375896 1258.23343,735.668262 C1258.80887,736.960629 1260.93527,739.393376 1262.75441,739.393376 Z" id="Oval-2" fill="#FCF3D9"></path>
                <path d="M225.618805,346.909089 C227.437954,346.909089 227.150544,343.373871 226.50377,341.95743 C225.856996,340.540989 223.89543,338.147728 222.459558,338.563539 C221.023685,338.979351 220.522387,341.89161 221.097824,343.183976 C221.67326,344.476342 223.799656,346.909089 225.618805,346.909089 Z" id="Oval-2" fill-opacity="0.52" fill="#48617A"></path>
                <path d="M228.502544,742 C231.425078,742 230.963343,736.320533 229.924275,734.044965 C228.885206,731.769398 225.733874,727.924529 223.427089,728.592547 C221.120304,729.260565 220.314949,733.939222 221.23941,736.01546 C222.163871,738.091697 225.580009,742 228.502544,742 Z" id="Oval-2" fill-opacity="0.595476676" fill="#FE1921"></path>
                <path d="M62.0781341,722.286021 C64.8352683,720.388318 62.028456,713.450151 58.8316707,710.832736 C55.6348854,708.215322 48.4986273,703.778447 46.6741993,705.501656 C44.8497714,707.224865 49.4863943,714.618884 50.721101,716.14705 C51.9558077,717.675216 59.3209999,724.183724 62.0781341,722.286021 Z" id="Oval-2" fill-opacity="0.267974411" fill="#FDC612"></path>
                <text id="r" transform="translate(173.500000, 623.000000) rotate(4.000000) translate(-173.500000, -623.000000) " font-family="Chivo-Bold, Chivo" font-size="18" font-weight="bold" fill="#393939">
                    <tspan x="161" y="616">r</tspan>
                </text>
                <text id="r" transform="translate(73.500000, 133.000000) rotate(-32.000000) translate(-73.500000, -133.000000) " font-family="Chivo-Bold, Chivo" font-size="18" font-weight="bold" fill="#393939">
                    <tspan x="61" y="126">r</tspan>
                </text>
                <text id="r" transform="translate(390.500000, 151.000000) rotate(16.000000) translate(-390.500000, -151.000000) " font-family="Chivo-Bold, Chivo" font-size="18" font-weight="bold" fill="#393939">
                    <tspan x="378" y="144">r</tspan>
                </text>
                <text id="r" transform="translate(1036.631068, 147.515748) rotate(64.000000) translate(-1036.631068, -147.515748) " font-family="Chivo-Bold, Chivo" font-size="18" font-weight="bold" fill="#393939">
                    <tspan x="1024.13107" y="140.515748">r</tspan>
                </text>
                <text id="r" transform="translate(1089.631068, 699.515748) rotate(-31.000000) translate(-1089.631068, -699.515748) " font-family="Chivo-Bold, Chivo" font-size="20" font-weight="bold" fill="#393939">
                    <tspan x="1077.13107" y="694.515748">r</tspan>
                </text>
                <text id="r" transform="translate(849.631068, 805.515748) rotate(-63.000000) translate(-849.631068, -805.515748) " font-family="Chivo-Bold, Chivo" font-size="24" font-weight="bold" fill="#393939">
                    <tspan x="837.131068" y="804.515748">r</tspan>
                </text>
            </g>
        </g>
    </g>
</svg>
